<svg width="19" height="25" viewBox="0 0 19 25" fill="none" xmlns="http://www.w3.org/2000/svg">
<g clip-path="url(#clip0_2_149)">
<path fill-rule="evenodd" clip-rule="evenodd" d="M9.1033 4.01046C11.8996 4.01623 14.1601 7.04298 14.1524 10.7709L14.1359 18.7709C14.1305 21.3943 12.531 23.5176 10.5632 23.5135C8.59546 23.5095 7.00472 21.3796 7.01014 18.7562L7.02694 10.6133C7.03007 9.09455 7.95611 7.86524 9.09534 7.86759C10.2346 7.86994 11.1555 9.10306 11.1524 10.6218L11.1362 18.479C11.1353 18.8932 10.8828 19.2285 10.5721 19.2278C10.2614 19.2272 10.0102 18.8909 10.0111 18.4767L10.0273 10.6195C10.0287 9.92917 9.61011 9.36866 9.09225 9.36759C8.57439 9.36652 8.15349 9.9253 8.15206 10.6156L8.13526 18.7585C8.13156 20.5534 9.22 22.0107 10.5663 22.0135C11.9127 22.0163 13.0071 20.5634 13.0108 18.7686L13.0273 10.7686C13.0333 7.86907 11.2751 5.51494 9.10021 5.51045C6.92534 5.50597 5.15742 7.85283 5.15143 10.7523L5.13552 18.4666C5.13466 18.8808 4.88209 19.2161 4.57141 19.2154C4.26072 19.2148 4.00954 18.8785 4.01039 18.4643L4.02631 10.75C4.034 7.02209 6.30706 4.00469 9.1033 4.01046Z" fill="#002FA8"/>
</g>
<defs>
<clipPath id="clip0_2_149">
<rect width="24" height="18.0021" fill="white" transform="translate(18.0515 0.0371399) rotate(90.1182)"/>
</clipPath>
</defs>
</svg>
