<svg width="24" height="24" viewBox="0 0 24 24" fill="none" xmlns="http://www.w3.org/2000/svg">
<path d="M6.39996 11.1761C6.39996 11.9761 6.59996 12.7761 6.89996 13.4761H2.79996C2.19996 13.4761 1.59996 13.1761 1.29996 12.6761C0.999963 12.0761 0.899963 11.4761 1.09996 10.9761C1.49996 9.97607 2.29996 9.17607 3.19996 8.67607C2.79996 8.17607 2.49996 7.47607 2.49996 6.77607C2.49996 5.27607 3.79996 3.97607 5.29996 3.97607C6.89996 3.97607 8.09996 5.27607 8.09996 6.77607C8.09996 6.87607 8.09996 7.07607 8.09996 7.17607C7.09996 8.17607 6.39996 9.57607 6.39996 11.1761Z" fill="#C4C4C4"/>
<path d="M22.7 12.5761C22.4 13.0761 21.8 13.3761 21.2 13.3761H17.1C17.4 12.6761 17.6 11.8761 17.6 11.0761C17.6 9.4761 17 8.0761 15.9 7.0761C15.9 6.9761 15.9 6.7761 15.9 6.6761C15.9 5.0761 17.2 3.8761 18.7 3.8761C20.2 3.8761 21.5 5.1761 21.5 6.6761C21.5 7.3761 21.2 8.0761 20.8 8.5761C21.7 9.1761 22.4 9.9761 22.9 10.9761C23.1 11.4761 23 12.0761 22.7 12.5761Z" fill="#C4C4C4"/>
<path d="M14.4 14.376C15.4 13.676 16.1 12.476 16.1 11.076C16.1 8.87605 14.3 7.07605 12.1 7.07605C9.90001 7.07605 8.00001 8.97605 8.00001 11.176C8.00001 12.476 8.70001 13.676 9.70001 14.476C7.90001 15.076 6.50001 16.4761 5.70001 18.2761C5.40001 18.9761 5.50001 19.776 5.90001 20.476C6.40001 21.176 7.10001 21.576 7.90001 21.576H16.1C16.9 21.576 17.7 21.176 18.1 20.476C18.5 19.776 18.6 18.9761 18.3 18.2761C17.6 16.3761 16.1 15.076 14.4 14.376Z" fill="#C4C4C4"/>
</svg>
