<svg width="15" height="15" viewBox="0 0 15 15" fill="none" xmlns="http://www.w3.org/2000/svg">
<path fill-rule="evenodd" clip-rule="evenodd" d="M6.79166 0.416656C3.27084 0.416656 0.416656 3.27084 0.416656 6.79166C0.416656 10.3125 3.27084 13.1667 6.79166 13.1667C8.29686 13.1667 9.68024 12.645 10.7709 11.7726L13.875 14.8767L14.8767 13.875L11.7726 10.7709C12.645 9.68024 13.1667 8.29686 13.1667 6.79166C13.1667 3.27084 10.3125 0.416656 6.79166 0.416656ZM1.83332 6.79166C1.83332 4.05325 4.05325 1.83332 6.79166 1.83332C9.53007 1.83332 11.75 4.05325 11.75 6.79166C11.75 9.53007 9.53007 11.75 6.79166 11.75C4.05325 11.75 1.83332 9.53007 1.83332 6.79166Z" fill="black"/>
</svg>
