<svg width="13" height="12" viewBox="0 0 13 12" fill="none" xmlns="http://www.w3.org/2000/svg">
<path d="M1.06461 11.9827C0.901163 11.9827 0.792202 11.9288 0.683235 11.8209C0.519789 11.6591 0.519789 11.4974 0.574273 11.2817L1.3915 8.5856C1.50047 8.15422 1.77288 7.66894 2.15426 7.3454L8.74658 0.71307C9.18246 0.281698 9.72727 0.0660114 10.3266 0.0660114C10.8714 0.0660114 11.4162 0.281698 11.8521 0.659147C12.6693 1.46797 12.6693 2.86993 11.7976 3.73268L6.2404 9.28658C6.02249 9.50227 5.69559 9.50227 5.47768 9.28658C5.25973 9.07094 5.25973 8.7474 5.47768 8.53171L11.0349 3.0317C11.4707 2.60032 11.5252 1.84542 11.0893 1.41405C10.8714 1.19837 10.599 1.09052 10.3266 1.09052C9.99967 1.09052 9.72727 1.19837 9.45487 1.46797L2.97148 7.93858L4.87836 9.8258C4.98732 9.93365 5.0418 10.0954 5.0418 10.2572C5.0418 10.4189 4.93284 10.5807 4.82388 10.6346L4.71491 10.6886C4.4425 10.8503 4.17009 11.0121 3.8432 11.12L1.17357 11.9288C1.11909 11.9827 1.11909 11.9827 1.06461 11.9827ZM2.42666 8.8013C2.42666 8.85525 2.42666 8.85525 2.37218 8.90914L1.82736 10.6886L3.57079 10.1493C3.62527 10.1493 3.62527 10.1493 3.67975 10.0954L2.42666 8.8013Z" fill="black"/>
</svg>
